# xmcd
#
# Track frame offsets: 
#        150
#        12400
#        26562
#        36155
#        48912
#        61667
#        77540
#        96922
#        109865
#        123305
#        142650
#        156839
#        170078
#        187544
#        202819
#        215640
#        227322
#        245991
#        260595
#        271599
#
# Disc length: 3795 seconds
#
# Revision: 0
# Processed by: cddbd v1.5.2PL0 Copyright (c) Steve Scherf et al.
# Submitted via: ExactAudioCopyFreeDBPlugin 1.0
#
DISCID=010ed114
DTITLE=Herb Pedersen - Southwest and Sandman
DYEAR=2013
DGENRE=Country
TTITLE0=Paperback Writer
TTITLE1=Rock and Roll Cajun
TTITLE2=If I Can Sing a Song
TTITLE3=Our Baby's Gone
TTITLE4=Harvest Home
TTITLE5=The Hey Boys
TTITLE6=Jesus Once Again
TTITLE7=Younger Days
TTITLE8=Can't You Hear Me Callin'
TTITLE9=Wait a Minute
TTITLE10=Sandman
TTITLE11=When She Makes Love to Me
TTITLE12=Cora Is Gone
TTITLE13=Is That Any Way to Love You
TTITLE14=Fair and Tender Ladies
TTITLE15=Tennessee Sal
TTITLE16=About Love Again
TTITLE17=Bring Back the Smile
TTITLE18=My Little Man
TTITLE19=If I Lose
EXTD=
EXTT0=
EXTT1=
EXTT2=
EXTT3=
EXTT4=
EXTT5=
EXTT6=
EXTT7=
EXTT8=
EXTT9=
EXTT10=
EXTT11=
EXTT12=
EXTT13=
EXTT14=
EXTT15=
EXTT16=
EXTT17=
EXTT18=
EXTT19=
PLAYORDER=
